<svg clip-rule="evenodd" fill="white" stroke-linejoin="round" stroke-miterlimit="2" viewBox="0 0 510 510" xmlns="http://www.w3.org/2000/svg"><path d="m58.169 327.309 74.343 131.362c1.422 2.536.538 5.775-1.986 7.2l-.01.006-25.268 14.321c-2.535 1.421-5.773.537-7.198-1.986l-.003-.006-74.359-131.391-.003-.005c-1.433-2.528-.549-5.759 1.967-7.18l.007-.004 25.309-14.328c2.522-1.423 5.75-.516 7.194 1.998zm-10.321 14.295c-5.739.82-9.702 6.149-8.882 11.888.854 5.738 6.183 9.735 11.922 8.881 5.739-.82 9.701-6.183 8.881-11.922-.854-5.739-6.183-9.701-11.921-8.847zm83.054 81.737-44.614-78.832 67.186-38.898c15.581-9.011 31.268-16.033 48.382-10.476l.003.001c21.68 7.03 57.037 22.027 93.153 28.644 8.993 3.151 14.761 12.134 12.276 21.373l-.001.004c-2.444 9.106-10.195 13.572-20.836 12.377-19.891-4.108-38.358-10.145-58.844-15.65-4.265-1.146-8.657 1.385-9.803 5.649s1.386 8.657 5.65 9.803c20.921 5.622 39.774 11.764 60.103 15.937l11.523 1.883c.009.001.019.003.028.004 16.286 2.593 31.231.302 45.49-8.007l90.157-52.509c18.591-10.83 32.266-13.985 41.967-11.952 10.792 2.261 14.92 11.87 14.2 20.594-.468 5.679-2.846 11.202-7.327 13.961l-163.607 100.731-.007.005c-13.095 8.082-27.449 9.914-42.309 5.95l-118.668-31.803c-2.05-.549-4.234-.262-6.071.799zm73.985-247.071c-.465-4.515-.703-9.095-.703-13.729 0-25.775 7.376-49.885 20.125-70.325 4.018 3.98 7.299 8.715 9.606 13.973 2.648 6.064 8.59 9.958 15.16 9.961 6.596.003 12.562-3.917 15.178-9.973 4.515-10.328 12.861-18.683 23.245-23.239 6.064-2.648 9.958-8.59 9.961-15.16.003-6.596-3.917-12.562-9.973-15.178-4.506-1.97-8.637-4.669-12.24-7.949 18.628-9.907 39.857-15.527 62.354-15.527 73.475 0 133.377 59.942 133.377 133.417s-59.902 133.377-133.377 133.377c-40.293 0-76.516-18.015-101.015-46.403 4.603-5.991 10.693-10.808 17.715-13.889 6.064-2.648 9.958-8.59 9.96-15.16.003-6.596-3.917-12.562-9.972-15.178-10.328-4.515-18.684-12.861-23.24-23.245-2.647-6.064-8.589-9.958-15.159-9.961-4.14-.002-8.031 1.541-11.002 4.188zm115.2-1.988-29.811-29.811c-7.722-7.722-20.26-7.722-27.981 0-7.722 7.761-7.722 20.259 0 27.98l43.822 43.862c7.721 7.722 20.259 7.722 27.981 0 26.428-26.428 52.539-53.135 78.848-79.683 7.682-7.762 7.642-20.26-.08-27.942-7.721-7.681-20.259-7.642-27.941.08zm-71.49-138.57c.084-.193.274-.318.484-.318s.4.125.483.318c6.161 14.091 17.486 25.416 31.577 31.576.193.083.318.274.318.484s-.125.4-.318.483c-14.091 6.161-25.416 17.486-31.576 31.577-.083.193-.274.318-.484.318s-.4-.125-.483-.318c-6.161-14.091-17.486-25.416-31.577-31.576-.193-.084-.318-.274-.318-.484s.125-.4.318-.483c14.091-6.161 25.416-17.486 31.576-31.577zm-103.897 66.397c.084-.193.274-.318.484-.318s.4.125.483.318c6.161 14.091 17.486 25.417 31.577 31.576.193.084.318.274.318.484s-.125.4-.318.483c-14.091 6.161-25.416 17.486-31.576 31.577-.083.193-.273.318-.484.318-.21 0-.4-.125-.483-.318-6.16-14.091-17.486-25.416-31.577-31.576-.193-.083-.318-.273-.318-.484 0-.21.125-.4.318-.483 14.091-6.16 25.417-17.486 31.576-31.577zm70.699 86.291c.083-.193.273-.318.483-.318s.4.125.483.318c6.161 14.091 17.486 25.416 31.578 31.576.193.084.318.274.317.484 0 .21-.125.4-.318.483-14.091 6.161-25.416 17.486-31.576 31.577-.083.193-.273.318-.483.318s-.4-.125-.483-.318c-6.161-14.091-17.487-25.416-31.578-31.576-.193-.083-.318-.274-.318-.484.001-.21.126-.4.318-.483 14.091-6.161 25.417-17.486 31.577-31.577z"/></svg>