<svg id="Capa_1" fill="white" height="512" viewBox="0 0 512.003 512.003" width="512" xmlns="http://www.w3.org/2000/svg"><g><path d="m271.199 191.949c-21.12 23.901-52.066 39.014-86.499 39.014s-65.38-15.113-86.5-39.015c-31.194 11.902-53.45 40.972-54.112 75.055h281.223c-.661-34.082-22.918-63.152-54.112-75.054z"/><path d="m173.301 60.317h93.117c-3.904-13.396-11.055-25.616-21.068-35.657-15.858-15.9-37.215-24.657-60.141-24.657-17.794.008-34.676 5.258-48.849 14.965v17.556c.001 15.065 16.917 27.793 36.941 27.793z"/><path d="m184.7 200.963c46.954 0 85.153-37.918 85.153-84.525v-26.121h-96.552c-31.179 0-57.446-18.5-64.852-43.452-5.808 11.557-8.901 24.371-8.901 37.665v31.908c0 46.607 38.199 84.525 85.152 84.525z"/><path d="m184.701 389.503c-8.271 0-15 6.729-15 15.001s6.729 15 15 15 15-6.729 15-15-6.729-15.001-15-15.001z"/><path d="m354.391 297.003h-339.386c-9.2 0-16.233 8.207-14.823 17.298l28.684 185c1.133 7.31 7.426 12.702 14.823 12.702h281.989c7.396 0 13.688-5.391 14.822-12.699l28.714-185c1.411-9.093-5.621-17.301-14.823-17.301zm-169.69 152.501c-24.813 0-45-20.187-45-45s20.187-45.001 45-45.001 45 20.188 45 45.001-20.187 45-45 45z"/><path d="m509.393 70.773c-1.605-6.768-7.648-11.538-14.594-11.538-.061 0-.123.001-.185.001-4.249 0-8.178-2.241-10.269-5.863-2.103-3.643-2.067-8.198.094-11.889 3.527-6.022 2.435-13.682-2.636-18.478-10.949-10.356-24.34-18.095-38.726-22.379-6.69-1.993-13.873.895-17.323 6.966-2.114 3.721-6.043 6.032-10.253 6.032s-8.139-2.312-10.253-6.032c-3.45-6.071-10.632-8.963-17.322-6.966-14.377 4.28-27.767 12.02-38.724 22.383-5.07 4.795-6.163 12.452-2.638 18.475 2.16 3.69 2.196 8.246.093 11.888-2.091 3.622-6.02 5.863-10.269 5.863-.062 0-.124-.001-.186-.001-6.944 0-12.987 4.771-14.593 11.536-1.731 7.294-2.608 14.812-2.608 22.349 0 7.532.878 15.051 2.609 22.347 1.605 6.768 7.648 11.538 14.594 11.538.061 0 .124-.001.185-.001 4.249 0 8.178 2.241 10.269 5.862 2.103 3.643 2.067 8.198-.094 11.889-3.527 6.022-2.435 13.682 2.636 18.478 10.951 10.357 24.342 18.097 38.725 22.38 6.691 1.997 13.873-.895 17.323-6.966 2.115-3.722 6.043-6.033 10.253-6.033s8.138 2.312 10.253 6.033c2.718 4.784 7.754 7.592 13.042 7.592 1.422 0 2.863-.203 4.281-.626 14.378-4.282 27.768-12.022 38.723-22.384 5.07-4.795 6.163-12.453 2.638-18.476-2.16-3.689-2.195-8.244-.092-11.887 2.09-3.622 6.018-5.862 10.266-5.862.063.001.126.002.188.001 6.944 0 12.987-4.77 14.593-11.535 1.731-7.292 2.609-14.812 2.609-22.35 0-7.533-.878-15.051-2.609-22.347zm-93.891 37.346c-8.284 0-15-6.716-15-15s6.716-15 15-15 15 6.716 15 15-6.716 15-15 15z"/></g></svg>