<svg id="Layer_1" fill="white" viewBox="0 0 512 512" xmlns="http://www.w3.org/2000/svg"><path d="m208.388 421.479 37.453 90.021h-86.338v-39.454c0-3.961-3.212-7.173-7.173-7.173s-7.162 3.212-7.162 7.173v39.454h-58.755v-71.798c0-50.721 40.008-92.289 90.134-94.762l31.44 75.574zm27.685-48.782h41.014l9.061-27.869h-59.135zm41.445 14.335h-41.876l-13.073 31.204 34.016 81.772 34.016-81.761zm59.094-42.02-31.502 75.697c0 .031-.01.061-.031.092l-.236.554-37.515 90.145h85.168v-39.454c0-3.961 3.212-7.173 7.173-7.173s7.162 3.212 7.162 7.173v39.454h58.756v-71.798c0-50.331-39.393-91.642-88.975-94.69zm-80.612-306.089c3.96 0 7.17-3.21 7.17-7.17v-24.083c0-3.96-3.21-7.17-7.17-7.17s-7.17 3.21-7.17 7.17v24.084c0 3.959 3.21 7.169 7.17 7.169zm55.025 14.34c1.129.652 2.362.962 3.578.962 2.478 0 4.888-1.287 6.216-3.586l11.838-20.506c1.98-3.43.805-7.815-2.624-9.794-3.43-1.979-7.815-.805-9.794 2.624l-11.838 20.506c-1.98 3.429-.805 7.814 2.624 9.794zm47.423 43.315c1.221 0 2.452-.308 3.581-.964l19.568-11.287c3.437-1.97 4.607-6.362 2.637-9.789-1.98-3.427-6.362-4.607-9.799-2.627l-19.568 11.277c-3.437 1.98-4.607 6.372-2.637 9.799 1.334 2.298 3.745 3.591 6.218 3.591zm-211.063 106.429-16.993 9.799c-3.427 1.98-4.597 6.362-2.627 9.789 1.334 2.309 3.745 3.591 6.218 3.591 1.221 0 2.452-.308 3.581-.964l16.982-9.799c3.437-1.98 4.607-6.362 2.627-9.789-1.969-3.437-6.361-4.607-9.788-2.627zm221.191-54.446c0 3.961 3.212 7.173 7.173 7.173h21.148c3.961 0 7.173-3.212 7.173-7.173 0-3.951-3.212-7.162-7.173-7.162h-21.148c-3.962 0-7.173 3.212-7.173 7.162zm-253.473 7.173h21.118c3.961 0 7.173-3.212 7.173-7.173 0-3.951-3.212-7.162-7.173-7.162h-21.118c-3.961 0-7.173 3.212-7.173 7.162.001 3.961 3.213 7.173 7.173 7.173zm15.297-71.405 19.575 11.286c1.128.651 2.359.96 3.574.96 2.479 0 4.891-1.288 6.218-3.59 1.978-3.43.8-7.815-2.63-9.792l-19.575-11.286c-3.43-1.979-7.815-.801-9.792 2.63-1.979 3.43-.801 7.815 2.63 9.792zm234.216 118.673c-3.429-1.979-7.814-.803-9.794 2.627-1.979 3.43-.803 7.815 2.627 9.794l16.987 9.802c1.129.651 2.361.961 3.577.961 2.478 0 4.889-1.287 6.217-3.588 1.979-3.43.803-7.815-2.627-9.794zm-173.435-152.364c1.328 2.3 3.738 3.586 6.216 3.586 1.217 0 2.449-.31 3.578-.962 3.429-1.98 4.605-6.365 2.624-9.794l-11.838-20.506c-1.98-3.43-6.365-4.605-9.794-2.624-3.429 1.98-4.605 6.365-2.624 9.794zm82.981 241.991v-.677h-36.325v.677c0 8.999 8.147 16.305 18.162 16.305 10.016 0 18.163-7.306 18.163-16.305zm-23.703-116.999v67.108h11.082v-67.108zm-44.472 64.061c0 1.652 1.498 3.048 3.273 3.048h26.864v-67.109h-7.788c-12.211 0-22.144-9.923-22.144-22.123 0-12.211 9.933-22.144 22.144-22.144 12.201 0 22.123 9.933 22.123 22.144v7.788h11.954v-10.23c0-12.775 10.384-23.17 23.139-23.17 12.775 0 23.17 10.395 23.17 23.17s-10.395 23.17-23.17 23.17h-9.676v68.504h26.833c1.796 0 3.304-1.396 3.304-3.048 0-17.218 8.24-27.038 16.213-36.53 9.461-11.277 19.25-22.934 19.25-50.608 0-46.042-38.346-83.495-85.476-83.495s-85.476 37.453-85.476 83.495c0 27.674 9.789 39.331 19.25 50.608 7.973 9.492 16.213 19.312 16.213 36.53zm88.913 33.021v-15.638h-77.8v15.638c0 2.658 2.678 4.895 5.859 4.895h66.082c3.181-.001 5.859-2.238 5.859-4.895zm-66.564-127.014c-4.299 0-7.809 3.509-7.809 7.809 0 4.289 3.509 7.788 7.809 7.788h7.788v-7.788c0-4.299-3.499-7.809-7.788-7.809zm66.041 5.367c0-4.864-3.961-8.825-8.825-8.825-4.854 0-8.794 3.961-8.794 8.825v8.835h8.794c4.864 0 8.825-3.961 8.825-8.835z"/></svg>