<svg id="Layer_1" fill="white" viewBox="0 0 512 512" xmlns="http://www.w3.org/2000/svg"><path clip-rule="evenodd" d="m113.61 87.136 10.924 28.772c.328.865 1.093 1.42 2.017 1.465l30.739 1.498c2.091.102 2.946 2.735 1.315 4.047l-23.988 19.28c-.721.58-1.013 1.478-.77 2.371l8.074 29.698c.549 2.02-1.691 3.647-3.442 2.501l-25.75-16.856c-.774-.507-1.719-.507-2.493 0l-25.749 16.856c-1.751 1.146-3.992-.481-3.442-2.501l8.074-29.698c.243-.893-.049-1.791-.77-2.371l-23.988-19.28c-1.632-1.311-.776-3.945 1.315-4.047l30.739-1.498c.924-.045 1.689-.6 2.017-1.465l10.924-28.772c.737-1.946 3.515-1.946 4.254 0zm279.109-62.437 10.924 28.772c.328.865 1.093 1.42 2.017 1.465l30.739 1.498c2.091.102 2.946 2.735 1.315 4.047l-23.988 19.281c-.721.579-1.013 1.478-.77 2.371l8.074 29.698c.549 2.02-1.691 3.647-3.442 2.501l-25.75-16.856c-.774-.507-1.719-.507-2.492 0l-25.749 16.856c-1.751 1.146-3.992-.481-3.442-2.501l8.074-29.698c.243-.893-.049-1.791-.77-2.371l-23.988-19.28c-1.632-1.311-.776-3.945 1.315-4.047l30.739-1.498c.924-.045 1.688-.6 2.017-1.465l10.924-28.772c.737-1.946 3.515-1.946 4.253-.001zm57.433 150.477 10.924 28.772c.328.865 1.093 1.421 2.017 1.465l30.74 1.498c2.09.102 2.946 2.735 1.315 4.047l-23.988 19.28c-.721.58-1.013 1.478-.771 2.371l8.074 29.698c.549 2.02-1.691 3.647-3.442 2.501l-25.75-16.856c-.774-.507-1.719-.507-2.492 0l-25.749 16.856c-1.751 1.146-3.991-.481-3.442-2.501l8.074-29.698c.243-.893-.049-1.791-.77-2.371l-23.988-19.28c-1.632-1.311-.776-3.945 1.315-4.047l30.74-1.498c.924-.045 1.688-.6 2.017-1.465l10.924-28.772c.735-1.945 3.513-1.945 4.252 0zm-384.048 59.626 10.924 28.772c.328.865 1.093 1.42 2.017 1.465l30.739 1.498c2.09.102 2.946 2.735 1.315 4.047l-23.988 19.28c-.721.58-1.013 1.478-.77 2.371l8.074 29.698c.549 2.02-1.691 3.647-3.442 2.501l-25.75-16.856c-.774-.507-1.719-.507-2.493 0l-25.75 16.856c-1.751 1.146-3.991-.481-3.442-2.501l8.074-29.698c.243-.893-.049-1.791-.77-2.371l-23.988-19.28c-1.632-1.311-.776-3.945 1.315-4.047l30.74-1.498c.924-.045 1.688-.6 2.017-1.465l10.924-28.772c.737-1.946 3.516-1.946 4.254 0zm146.486 103.577c5.103-5.103 13.452-5.103 18.554 0l13.293 13.293 35.968-35.968c5.102-5.102 13.452-5.102 18.554 0 0 1.23 8.903 9.651 0 18.555l-44.988 44.988c-6.505 6.505-15.206 3.861-20.975-1.908l-20.406-20.407c-5.102-5.101-5.102-13.45 0-18.553zm182.144-9.08-20.935-8.058c-.63-.242-1.063-.734-1.225-1.389-2.882-11.662-7.511-22.818-13.721-33.1-.349-.578-.391-1.231-.117-1.848l9.112-20.515c.343-.772.183-1.632-.414-2.229l-24.854-24.854c-.598-.598-1.457-.757-2.229-.414l-20.521 9.114c-.617.274-1.27.233-1.848-.116-10.28-6.207-21.433-10.836-33.091-13.719-.655-.162-1.146-.595-1.389-1.225l-8.06-20.94c-.304-.789-1.024-1.283-1.87-1.283h-35.147c-.845 0-1.566.495-1.869 1.283l-8.061 20.941c-.243.63-.734 1.063-1.388 1.225-11.658 2.882-22.811 7.511-33.091 13.719-.578.349-1.231.39-1.848.116l-20.522-9.114c-.772-.343-1.631-.184-2.229.414l-24.853 24.854c-.598.597-.757 1.457-.415 2.229l9.114 20.519c.273.617.233 1.271-.116 1.848-6.208 10.281-10.837 21.435-13.72 33.093-.162.656-.595 1.146-1.225 1.388l-20.938 8.06c-.789.304-1.283 1.024-1.283 1.869v35.148c0 .845.495 1.565 1.283 1.869l20.935 8.057c.63.243 1.062.733 1.225 1.389 2.883 11.661 7.512 22.818 13.721 33.1.349.578.39 1.231.116 1.848l-9.112 20.515c-.343.772-.184 1.631.415 2.229l24.854 24.853c.597.598 1.457.757 2.229.414l20.522-9.114c.617-.274 1.271-.233 1.848.116 10.28 6.207 21.432 10.836 33.091 13.719.654.162 1.146.595 1.388 1.225l8.061 20.94c.303.789 1.024 1.283 1.869 1.283h35.147c.846 0 1.566-.495 1.87-1.283l8.058-20.935c.242-.63.733-1.063 1.388-1.225 11.662-2.882 22.818-7.511 33.1-13.721.578-.349 1.231-.39 1.848-.116l20.514 9.112c.772.343 1.632.184 2.229-.414l24.854-24.854c.597-.597.757-1.457.414-2.229l-9.114-20.521c-.274-.617-.233-1.27.116-1.848 6.208-10.281 10.836-21.433 13.719-33.091.162-.655.595-1.146 1.225-1.388l20.94-8.06c.789-.303 1.283-1.024 1.283-1.869v-35.148c.001-.845-.494-1.565-1.283-1.869zm-138.96 92.533c-41.072 0-74.368-33.295-74.368-74.368s33.296-74.368 74.368-74.368c41.073 0 74.369 33.295 74.369 74.368 0 41.072-33.296 74.368-74.369 74.368zm-.266-365.914c-28.312 0-51.263 22.952-51.263 51.264 0 28.307 22.944 51.256 51.25 51.263-43.319.005-80.288 27.178-94.803 65.409 5.082-3.459 11.7-4.135 17.45-1.582l14.08 6.253c7.623-4.051 15.621-7.368 23.874-9.898l5.53-14.366c2.681-6.964 9.339-11.535 16.801-11.535h35.147c7.462 0 14.121 4.572 16.802 11.536l5.529 14.365c8.254 2.531 16.25 5.848 23.874 9.898l14.079-6.253c5.27-2.341 11.27-1.967 16.148.775-14.727-37.803-51.473-64.596-94.485-64.602 28.306-.007 51.251-22.955 51.251-51.263-.001-28.313-22.953-51.264-51.264-51.264z" fill-rule="evenodd"/></svg>