<svg id="Capa_1" fill="white" height="512" viewBox="0 0 512.001 512.001" width="512" xmlns="http://www.w3.org/2000/svg"><g><path d="m511.475 451.532-13.019-47.919c8.879-17.296 13.544-36.572 13.544-56.143 0-41.955-21.12-79.063-53.282-101.271.128 3.257.209 6.523.209 9.801 0 65.299-25.429 126.689-71.602 172.862-12.855 12.854-26.891 24.095-41.861 33.633 13.542 5.143 28.216 7.969 43.54 7.969 19.571 0 38.847-4.666 56.143-13.544l47.918 13.02c1.299.353 2.621.524 3.932.524 3.926 0 7.757-1.543 10.607-4.394 3.805-3.802 5.282-9.349 3.871-14.538z"/><path d="m153.904 267.252c-6.413 6.413-9.945 14.939-9.945 24.009 0 9.068 3.532 17.596 9.945 24.009l1.291 1.291c6.413 6.413 14.939 9.944 24.009 9.944 9.069 0 17.595-3.531 24.008-9.944l25.3-25.3-49.308-49.308z"/><path d="m273.733 195.44c-6.413-6.413-14.939-9.944-24.009-9.944-9.069 0-17.595 3.531-24.008 9.944l-25.3 25.3 49.308 49.308 25.3-25.3c6.413-6.413 9.945-14.939 9.945-24.009 0-9.068-3.532-17.596-9.945-24.009z"/><path d="m366.113 104.351c-40.507-40.506-94.364-62.814-151.649-62.814s-111.142 22.308-151.649 62.814c-40.507 40.507-62.815 94.364-62.815 151.649 0 35.76 8.931 70.952 25.883 102.194l-25.358 93.338c-1.41 5.189.066 10.736 3.869 14.539 2.851 2.851 6.681 4.395 10.607 4.394 1.311 0 2.633-.172 3.932-.524l93.337-25.359c31.243 16.952 66.436 25.884 102.194 25.884 57.285 0 111.142-22.309 151.649-62.814 40.507-40.507 62.815-94.364 62.815-151.649s-22.308-111.145-62.815-151.652zm-186.909 252.154c-17.083 0-33.143-6.652-45.222-18.731l-1.291-1.291c-12.08-12.079-18.732-28.14-18.732-45.222 0-17.083 6.652-33.143 18.732-45.222l71.812-71.812c12.079-12.079 28.139-18.731 45.221-18.731 17.083 0 33.143 6.652 45.222 18.731l1.291 1.291c12.08 12.079 18.732 28.14 18.732 45.222 0 17.083-6.652 33.143-18.732 45.222l-71.812 71.812c-12.079 12.079-28.139 18.731-45.221 18.731z"/></g></svg>