<svg width="80" height="57" viewBox="0 0 80 57" fill="none" xmlns="http://www.w3.org/2000/svg">
<path d="M28.5714 19.95H22.8989C25.5523 12.2849 27.818 8.61413 35.3571 5.48027C36.6154 4.95701 37.3271 3.62121 37.0591 2.28798C36.7914 0.957316 35.6194 0 34.2577 0H34.252C18.5237 0.02793 9.48914 6.31788 3.08286 21.6922C1.038 26.5212 0 31.6894 0 37.05C0 45.2939 2.5 49.7832 6.31143 55.6918C6.836 56.5072 7.74286 57 8.71371 57H28.5714C33.298 57 37.1429 53.1648 37.1429 48.45V28.5C37.1429 23.7852 33.298 19.95 28.5714 19.95ZM71.4286 19.95H65.756C68.4094 12.2849 70.6751 8.61413 78.2143 5.48027C79.4726 4.95701 80.1843 3.62121 79.9163 2.28798C79.6486 0.957316 78.4766 0 77.1149 0H77.1091C61.3809 0.02793 52.3463 6.31788 45.94 21.6922C43.8951 26.5212 42.8571 31.6894 42.8571 37.05C42.8571 45.2939 45.3571 49.7832 49.1686 55.6918C49.6931 56.5072 50.6 57 51.5709 57H71.4286C76.1551 57 80 53.1648 80 48.45V28.5C80 23.7852 76.1551 19.95 71.4286 19.95Z" fill="#0096FD"/>
</svg>
