<svg id="Layer_1" fill="white" height="512" viewBox="0 0 512 512" width="512" xmlns="http://www.w3.org/2000/svg"><path clip-rule="evenodd" d="m395.061 246.911c58.51 0 105.939 47.43 105.939 105.939 0 58.508-47.43 105.939-105.939 105.939-58.508 0-105.939-47.432-105.939-105.939-.001-58.509 47.431-105.939 105.939-105.939zm-341.674-25.035v-38.799c0-2.051 1.672-3.723 3.723-3.723h37.893c2.049 0 3.723 1.672 3.723 3.723v38.799c0 2.05-1.674 3.723-3.723 3.723h-37.894c-2.05 0-3.722-1.673-3.722-3.723zm341.674-66.556h-384.061v243.1c0 6.755 5.514 12.269 12.271 12.269h262.146c-9.129-17.266-14.297-36.949-14.297-57.838 0-68.45 55.49-123.939 123.939-123.939v-73.592zm-337.952 176.091h37.893c2.049 0 3.723 1.672 3.723 3.723v38.799c0 2.051-1.674 3.723-3.723 3.723h-37.893c-2.051 0-3.723-1.672-3.723-3.723v-38.799c.001-2.051 1.673-3.723 3.723-3.723zm169.301 0h37.891c2.051 0 3.723 1.672 3.723 3.723v38.799c0 2.051-1.672 3.723-3.723 3.723h-37.891c-2.051 0-3.723-1.672-3.723-3.723v-38.799c.001-2.051 1.672-3.723 3.723-3.723zm-84.65 0h37.891c2.051 0 3.725 1.672 3.725 3.723v38.799c0 2.051-1.674 3.723-3.725 3.723h-37.891c-2.051 0-3.723-1.672-3.723-3.723v-38.799c0-2.051 1.672-3.723 3.723-3.723zm-88.373-33.508v-38.798c0-2.05 1.672-3.723 3.723-3.723h37.893c2.049 0 3.723 1.673 3.723 3.723v38.798c0 2.051-1.674 3.723-3.723 3.723h-37.894c-2.05 0-3.722-1.672-3.722-3.723zm84.65 0v-38.798c0-2.05 1.672-3.723 3.723-3.723h37.891c2.051 0 3.725 1.673 3.725 3.723v38.798c0 2.051-1.674 3.723-3.725 3.723h-37.891c-2.051 0-3.723-1.672-3.723-3.723zm84.651 0v-38.798c0-2.05 1.672-3.723 3.723-3.723h37.891c2.051 0 3.723 1.673 3.723 3.723v38.798c0 2.051-1.672 3.723-3.723 3.723h-37.892c-2.051 0-3.722-1.672-3.722-3.723zm41.613-72.304h-37.891c-2.051 0-3.723-1.673-3.723-3.723v-38.799c0-2.051 1.672-3.723 3.723-3.723h37.891c2.051 0 3.723 1.672 3.723 3.723v38.799c-.001 2.05-1.672 3.723-3.723 3.723zm43.037-3.723v-38.799c0-2.051 1.672-3.723 3.723-3.723h37.891c2.051 0 3.723 1.672 3.723 3.723v38.799c0 2.05-1.672 3.723-3.723 3.723h-37.891c-2.051 0-3.723-1.673-3.723-3.723zm-169.301 0v-38.799c0-2.051 1.672-3.723 3.723-3.723h37.891c2.051 0 3.725 1.672 3.725 3.723v38.799c0 2.05-1.674 3.723-3.725 3.723h-37.891c-2.051 0-3.723-1.673-3.723-3.723zm-58.103-116.5c0 4.225-3.453 7.68-7.678 7.68h-16.076c-4.225 0-7.678-3.455-7.678-7.68v-22.244h-25.23c-6.758 0-12.272 5.512-12.272 12.269v41.919h384.061v-41.919c0-6.758-5.514-12.27-12.271-12.27h-25.23v22.244c0 4.225-3.453 7.68-7.676 7.68h-16.076c-4.227 0-7.68-3.455-7.68-7.68v-22.243h-61.109v22.244c0 4.225-3.455 7.68-7.678 7.68h-16.076c-4.225 0-7.678-3.455-7.678-7.68v-22.244h-61.109v22.244c0 4.225-3.455 7.68-7.678 7.68h-16.076c-4.225 0-7.68-3.455-7.68-7.68v-22.244h-61.11zm-23.754-52.166h16.076c4.225 0 7.678 3.454 7.678 7.678v21.344h-31.432v-21.344c0-4.224 3.453-7.678 7.678-7.678zm277.627 0h16.076c4.223 0 7.676 3.454 7.676 7.678v21.344h-31.432v-21.344c0-4.224 3.453-7.678 7.68-7.678zm-92.543 0h16.076c4.223 0 7.678 3.454 7.678 7.678v21.344h-31.432v-21.344c0-4.224 3.453-7.678 7.678-7.678zm-92.541 0h16.076c4.223 0 7.678 3.454 7.678 7.678v21.344h-31.434v-21.344c0-4.224 3.455-7.678 7.68-7.678zm255.338 285.143v-63.461c0-4.971-4.029-9-9-9s-9 4.029-9 9v72.787l-43.072 24.868c-4.291 2.485-5.756 7.979-3.27 12.27 2.484 4.291 7.979 5.755 12.27 3.27l34.975-20.192c1.459 3.001 4.537 5.07 8.098 5.07 4.971 0 9-4.029 9-9v-5.963l5.09-2.938c4.291-2.467 5.77-7.944 3.305-12.234-1.769-3.075-5.082-4.706-8.396-4.477z" fill-rule="evenodd"/></svg>