<svg id="Wifi-Call--Streamline-Atlas" xmlns="http://www.w3.org/2000/svg" viewBox="-0.625 -0.625 20 20" height="20" width="20">
  <desc>
    Wifi Call Streamline Icon: https://streamlinehq.com
  </desc>
  <defs></defs>
  <path d="M10.4921875 6.171875a2.09375 2.09375 0 0 1 2.0859375 2.0859375" fill="none" stroke="#ffffff" stroke-miterlimit="10" stroke-width="1.25"></path>
  <path d="M10.4921875 3.671875a4.5859375 4.5859375 0 0 1 4.5859375 4.5859375" fill="none" stroke="#ffffff" stroke-miterlimit="10" stroke-width="1.25"></path>
  <path d="M10.4921875 1.171875a7.0859375 7.0859375 0 0 1 7.0859375 7.0859375" fill="none" stroke="#ffffff" stroke-miterlimit="10" stroke-width="1.25"></path>
  <path d="M14.6484375 16.703125c-1.8984375000000002 1.890625 -6.25 0.6171875 -9.734375 -2.8671875S0.15625 6 2.046875 4.1015625l2.078125 -2.078125 4.0078125 4.0078125 -1.5 1.515625a1.6171874999999998 1.6171874999999998 0 0 0 0 2.28125l2.2890625 2.2890625a1.6171874999999998 1.6171874999999998 0 0 0 2.28125 0l1.515625 -1.5 4.0078125 4.0078125Z" fill="none" stroke="#ffffff" stroke-miterlimit="10" stroke-width="1.25"></path>
</svg>